<?xml version="1.0" encoding="UTF-8"?>
<!DOCTYPE svg PUBLIC "-//W3C//DTD SVG 1.1//EN" "http://www.w3.org/Graphics/SVG/1.1/DTD/svg11.dtd">
<svg xmlns="http://www.w3.org/2000/svg" version="1.1" width="32px" height="32px" style="shape-rendering:geometricPrecision; text-rendering:geometricPrecision; image-rendering:optimizeQuality; fill-rule:evenodd; clip-rule:evenodd" xmlns:xlink="http://www.w3.org/1999/xlink">
<g><path style="opacity:0.946" fill="#01a657" d="M 0.5,-0.5 C 4.16667,-0.5 7.83333,-0.5 11.5,-0.5C 15.5795,10.4236 11.9128,14.4236 0.5,11.5C 0.5,7.5 0.5,3.5 0.5,-0.5 Z"/></g>
<g><path style="opacity:0.899" fill="#06a459" d="M 14.5,4.5 C 15.8333,4.5 17.1667,4.5 18.5,4.5C 18.5,5.5 18.5,6.5 18.5,7.5C 17.1667,7.5 15.8333,7.5 14.5,7.5C 14.5,6.5 14.5,5.5 14.5,4.5 Z"/></g>
<g><path style="opacity:0.945" fill="#05a658" d="M 23.5,9.5 C 23.5,12.5 23.5,15.5 23.5,18.5C 20.3752,19.4794 17.0419,19.8128 13.5,19.5C 13.5,15.8333 13.5,12.1667 13.5,8.5C 17.0419,8.18723 20.3752,8.52056 23.5,9.5 Z"/></g>
<g><path style="opacity:0.749" fill="#ef8a3a" d="M 23.5,9.5 C 24.5,9.5 25.5,9.5 26.5,9.5C 26.5,12.5 26.5,15.5 26.5,18.5C 25.5,18.5 24.5,18.5 23.5,18.5C 23.5,15.5 23.5,12.5 23.5,9.5 Z"/></g>
<g><path style="opacity:1" fill="#f28836" d="M 2.5,15.5 C 3.83333,15.5 5.16667,15.5 6.5,15.5C 6.5,16.8333 6.5,18.1667 6.5,19.5C 5.16667,19.5 3.83333,19.5 2.5,19.5C 2.5,18.1667 2.5,16.8333 2.5,15.5 Z"/></g>
<g><path style="opacity:0.998" fill="#01a658" d="M 0.5,21.5 C 3.83333,21.5 7.16667,21.5 10.5,21.5C 10.5,24.5 10.5,27.5 10.5,30.5C 7.16667,30.5 3.83333,30.5 0.5,30.5C 0.5,27.5 0.5,24.5 0.5,21.5 Z"/></g>
<g><path style="opacity:0.992" fill="#02a657" d="M 31.5,21.5 C 31.5,24.5 31.5,27.5 31.5,30.5C 27.8333,30.5 24.1667,30.5 20.5,30.5C 20.5,27.5 20.5,24.5 20.5,21.5C 24.1667,21.5 27.8333,21.5 31.5,21.5 Z"/></g>
<g><path style="opacity:0.851" fill="#00a757" d="M 13.5,26.5 C 14.8333,26.5 16.1667,26.5 17.5,26.5C 17.5,27.8333 17.5,29.1667 17.5,30.5C 16.1667,30.5 14.8333,30.5 13.5,30.5C 13.5,29.1667 13.5,27.8333 13.5,26.5 Z"/></g>
</svg>
