<?xml version="1.0" encoding="UTF-8"?>
<!DOCTYPE svg PUBLIC "-//W3C//DTD SVG 1.1//EN" "http://www.w3.org/Graphics/SVG/1.1/DTD/svg11.dtd">
<svg xmlns="http://www.w3.org/2000/svg" version="1.1" width="3300px" height="2550px" style="shape-rendering:geometricPrecision; text-rendering:geometricPrecision; image-rendering:optimizeQuality; fill-rule:evenodd; clip-rule:evenodd" xmlns:xlink="http://www.w3.org/1999/xlink">
<g><path style="opacity:0.999" fill="#53314c" d="M 1684.5,247.5 C 1693.47,250.482 1702.14,254.316 1710.5,259C 1717.95,303.642 1724.62,348.476 1730.5,393.5C 1739.39,394.413 1748.23,395.747 1757,397.5C 1768.05,384.402 1778.39,370.736 1788,356.5C 1905.78,360.816 2023.62,366.149 2141.5,372.5C 2128.17,380.167 2114.83,387.833 2101.5,395.5C 2135.68,450.541 2170.35,505.208 2205.5,559.5C 2224.17,548.165 2242.51,536.332 2260.5,524C 2262.02,522.991 2263.69,522.491 2265.5,522.5C 2402.14,880.589 2539.47,1238.42 2677.5,1596C 2674.79,1596.33 2672.13,1595.99 2669.5,1595C 2642.24,1586.86 2614.9,1579.02 2587.5,1571.5C 2590.95,1544.36 2594.29,1517.2 2597.5,1490C 2597.17,1488.5 2596.83,1487 2596.5,1485.5C 2593.83,1484.17 2591.17,1482.83 2588.5,1481.5C 2572.16,1511.52 2556.32,1541.85 2541,1572.5C 2525.69,1785.83 2510.52,1999.16 2495.5,2212.5C 2470.13,2200.65 2445.13,2187.98 2420.5,2174.5C 2420.17,2173.33 2419.83,2172.17 2419.5,2171C 2425.65,2077.47 2431.48,1983.97 2437,1890.5C 2406.14,1931.03 2374.14,1970.7 2341,2009.5C 2330.5,2021.33 2319.33,2032.5 2307.5,2043C 2292.1,2052.53 2275.77,2060.2 2258.5,2066C 2168.32,2097.64 2078.32,2097.3 1988.5,2065C 1927.23,2039.06 1881.4,1996.56 1851,1937.5C 1838.18,1912.05 1827.52,1885.71 1819,1858.5C 1808.82,1823.45 1798.49,1788.45 1788,1753.5C 1782.98,1737.63 1775.48,1723.13 1765.5,1710C 1726.83,1708.54 1688.16,1708.04 1649.5,1708.5C 1639.5,1734.17 1629.5,1759.83 1619.5,1785.5C 1627.92,1784.99 1636.25,1783.32 1644.5,1780.5C 1629.83,1839.98 1607,1896.31 1576,1949.5C 1519.9,2036.99 1439.4,2082.16 1334.5,2085C 1282.96,2088.58 1232.29,2083.58 1182.5,2070C 1101.22,2045.05 1041.72,1994.55 1004,1918.5C 997,1904.17 990,1889.83 983,1875.5C 980.416,1869.42 976.25,1864.75 970.5,1861.5C 961.81,1862.61 953.143,1863.95 944.5,1865.5C 963.852,1990.8 982.686,2116.14 1001,2241.5C 970.543,2265.15 936.709,2282.65 899.5,2294C 823.246,2314.35 759.413,2294.85 708,2235.5C 680.115,2200.4 660.115,2161.07 648,2117.5C 625.082,2031.9 617.082,1944.9 624,1856.5C 625.861,1830.09 628.527,1803.75 632,1777.5C 639.374,1729.89 646.374,1682.22 653,1634.5C 653.846,1626.35 654.346,1618.19 654.5,1610C 652.445,1592.06 651.112,1574.06 650.5,1556C 651.998,1513.52 656.498,1471.35 664,1429.5C 674.181,1370.11 687.515,1311.44 704,1253.5C 710.339,1231.48 717.672,1209.82 726,1188.5C 730.946,1175.94 736.946,1163.94 744,1152.5C 779.388,1104.11 814.388,1055.45 849,1006.5C 874.289,968.955 886.456,927.455 885.5,882C 884.4,849.738 882.067,817.571 878.5,785.5C 915.519,786.283 952.519,786.783 989.5,787C 977.029,775.53 964.862,763.696 953,751.5C 952.333,750.5 952.333,749.5 953,748.5C 1040.2,658.303 1127.03,567.803 1213.5,477C 1216.02,476.743 1218.35,477.41 1220.5,479C 1244.08,493.375 1267.58,507.875 1291,522.5C 1280.66,449.613 1269.82,376.779 1258.5,304C 1259.83,303.333 1261.17,303.333 1262.5,304C 1369.75,351.467 1477.08,398.633 1584.5,445.5C 1581.82,434.458 1579.32,423.458 1577,412.5C 1613.35,357.785 1649.19,302.785 1684.5,247.5 Z M 2402.5,1141.5 C 2409.69,1140.43 2416.02,1142.26 2421.5,1147C 2441.05,1165.27 2450.22,1187.77 2449,1214.5C 2447.58,1220.84 2444.08,1225.68 2438.5,1229C 2432.89,1226.39 2426.89,1224.56 2420.5,1223.5C 2415.43,1223.98 2410.59,1225.31 2406,1227.5C 2396.29,1223.98 2386.96,1219.65 2378,1214.5C 2377.89,1196.75 2380.55,1179.42 2386,1162.5C 2388.82,1153.2 2394.32,1146.2 2402.5,1141.5 Z M 956.5,1409.5 C 944.234,1425.11 931.567,1440.44 918.5,1455.5C 919.025,1456.19 919.692,1456.69 920.5,1457C 930.527,1458.06 940.527,1459.23 950.5,1460.5C 945.266,1515.5 918.6,1556.33 870.5,1583C 826.672,1605.61 780.338,1620.61 731.5,1628C 716.181,1630.61 700.848,1633.11 685.5,1635.5C 675.365,1631.27 665.698,1626.27 656.5,1620.5C 706.062,1520.38 755.895,1420.38 806,1320.5C 813.802,1329.3 821.969,1337.8 830.5,1346C 831.332,1346.69 831.998,1346.52 832.5,1345.5C 824.5,1286.83 816.5,1228.17 808.5,1169.5C 846.511,1163.24 884.678,1157.57 923,1152.5C 924.167,1152.67 925.333,1152.83 926.5,1153C 935.372,1161.24 941.872,1171.07 946,1182.5C 953.741,1205.21 958.408,1228.54 960,1252.5C 963.558,1304.94 962.391,1357.27 956.5,1409.5 Z M 2405.5,1229.5 C 2415.72,1232.15 2426.06,1232.98 2436.5,1232C 2441.95,1237.73 2445.11,1244.56 2446,1252.5C 2449.19,1273.06 2445.19,1292.06 2434,1309.5C 2421.23,1323.68 2410.23,1322.35 2401,1305.5C 2393.3,1289.69 2389.97,1273.02 2391,1255.5C 2392.47,1244.89 2397.3,1236.23 2405.5,1229.5 Z M 2393.5,1433.5 C 2393.4,1422.78 2392.73,1412.12 2391.5,1401.5C 2395.49,1375.18 2405.32,1351.18 2421,1329.5C 2426.89,1319.43 2435.39,1316.26 2446.5,1320C 2457.92,1324.21 2468.25,1330.21 2477.5,1338C 2519.73,1375.88 2556.06,1418.54 2586.5,1466C 2565.68,1494.16 2544.85,1522.32 2524,1550.5C 2519.73,1556.06 2515.23,1561.39 2510.5,1566.5C 2492.83,1552.67 2475.17,1538.83 2457.5,1525C 2436.35,1507.46 2418.85,1486.96 2405,1463.5C 2400.27,1453.72 2396.43,1443.72 2393.5,1433.5 Z"/></g>
<g><path style="opacity:1" fill="#c2845a" d="M 2391.5,1401.5 C 2392.73,1412.12 2393.4,1422.78 2393.5,1433.5C 2394.58,1456.15 2394.74,1478.82 2394,1501.5C 2391.67,1488.17 2389.33,1474.83 2387,1461.5C 2386.69,1460.69 2386.19,1460.03 2385.5,1459.5C 2136.22,1503.78 1886.89,1547.78 1637.5,1591.5C 1627.41,1679.23 1616.91,1766.9 1606,1854.5C 1596.86,1824.24 1588.02,1793.9 1579.5,1763.5C 1571.15,1764.58 1562.82,1765.41 1554.5,1766C 1574.76,1729.48 1594.76,1692.81 1614.5,1656C 1595.01,1633.84 1574.84,1612.34 1554,1591.5C 1494.03,1641.97 1434.2,1692.63 1374.5,1743.5C 1386.91,1676.13 1400.24,1608.8 1414.5,1541.5C 1413.91,1540.2 1412.91,1539.37 1411.5,1539C 1398.68,1534.73 1386.01,1530.06 1373.5,1525C 1375.13,1520.6 1376.47,1516.1 1377.5,1511.5C 1459.78,1535.37 1542.11,1559.04 1624.5,1582.5C 1626.72,1567.2 1628.72,1551.87 1630.5,1536.5C 1403.82,1511.33 1177.15,1486 950.5,1460.5C 940.527,1459.23 930.527,1458.06 920.5,1457C 919.692,1456.69 919.025,1456.19 918.5,1455.5C 931.567,1440.44 944.234,1425.11 956.5,1409.5C 1096.64,1241.19 1236.64,1072.69 1376.5,904C 1386.13,904.493 1395.8,904.159 1405.5,903C 1472.95,892.611 1540.61,883.944 1608.5,877C 1706.33,867.242 1804,868.576 1901.5,881C 2202.33,925.001 2365.67,1098.5 2391.5,1401.5 Z"/></g>
</svg>
