<?xml version="1.0" encoding="UTF-8"?>
<!DOCTYPE svg PUBLIC "-//W3C//DTD SVG 1.1//EN" "http://www.w3.org/Graphics/SVG/1.1/DTD/svg11.dtd">
<!-- Creator: CorelDRAW 2019 -->
<svg xmlns="http://www.w3.org/2000/svg" xml:space="preserve" width="4in" height="2.33333in" version="1.1" style="shape-rendering:geometricPrecision; text-rendering:geometricPrecision; image-rendering:optimizeQuality; fill-rule:evenodd; clip-rule:evenodd"
viewBox="0 0 4000 2333.33"
 xmlns:xlink="http://www.w3.org/1999/xlink">
 <defs>
  <style type="text/css">
   <![CDATA[
    .fil1 {fill:#3db36c}
    .fil0 {fill:#dce3de}
   ]]>
  </style>
 </defs>
 <g id="Layer_x0020_1">
  <metadata id="CorelCorpID_0Corel-Layer"/>
  <path class="fil0" d="M726.6 1769.87c-1.22,-1.97 -129.99,36.21 -149.8,36.62 -2.28,0.05 -4.71,-0.45 -7.3,-0.51 -150.86,-3 -341.41,-127.38 -361.26,-252.73 -8.75,-16.45 -15.7,-31.79 -19.31,-44.34 -9.11,-31.63 -15.22,-72.39 -17.33,-100.73 -3.82,-51.39 1.46,-95.15 23.45,-157.78 0.91,-2.6 2.49,-2.32 0.16,-3.39 -23.17,-10.63 -61.28,-43.01 -75.86,-61.83 -45.69,-58.99 -66.67,-92.4 -86.17,-169.43 -2.65,-10.48 -4.4,-25.31 -6.52,-37.63 -2.48,-13.84 -9.29,-68.9 10.39,-113.26 1.19,-2.67 1.18,-5.63 1.82,-8.11 24.93,-96.09 109.33,-192.28 189.92,-218.09 2.38,-0.76 0.78,-0.69 0.01,-3.39 -18.66,-65.29 -16.65,-112.89 -10.19,-163.59 0.3,-2.43 1.18,-4.9 1.58,-7.64 9.73,-65.43 43.22,-134.58 82.5,-171.52 33.54,-31.54 62.66,-50.46 92.21,-63.38 49.59,-28.82 117.99,-57.68 239.76,-62.48 47.53,-1.88 88.2,4.66 146.96,30.44 2.44,1.07 2.22,2.77 3.14,0.29 9.09,-24.69 37.87,-64.81 54.83,-79.95 53.17,-47.45 83.46,-69.03 154.2,-87.6 8.7,-2.28 20.72,-3.65 31.33,-5.29 11.61,0.3 23.7,1.93 35.5,5.63 2.69,0.85 5.38,0.38 7.79,0.68 92.92,11.61 198.91,86.32 239.99,167.87 1.21,2.41 0.8,0.73 3.09,-0.51 55.36,-29.9 99.13,-35.13 146.71,-36.1 2.28,-0.05 4.71,0.49 7.3,0.5 61.69,0.22 131.95,25.07 174.15,61.05 2.77,2.36 5.46,4.71 8.09,7.04 70.03,22.7 175.45,146.3 208.61,212.63 14.95,29.92 22.22,71.08 25.81,99.34 6.52,51.25 0.76,95.84 -26.6,161.33 -1.13,2.72 -3.24,2.61 -0.12,3.43 31,8.06 85.55,33.28 102.28,53.58 194.85,236.46 115.89,480.83 -129.53,562.04 -3.13,1.04 -1.04,0.8 0.08,3.42 161.99,377.09 -338.17,530.14 -466.56,357.35 -0.08,-0.11 -1.55,-1.43 -2.74,-1.23 -0.28,0.05 -0.89,0.13 -0.8,0.46 50.62,176.5 -388.93,479.85 -631.56,86.84z"/>
  <polygon class="fil1" points="1427.83,554.97 1576.54,704.83 1034.11,1274.6 1032.82,1273.3 896.97,1413.61 538.75,1050.56 677.3,907.48 888.48,1121.51 "/>
 </g>
</svg>
